<svg version="1.1" width="3162.2302724838564" height="1336.2267607030562" viewBox="0 0 3162.2302724838564 1336.2267607030562" xmlns="http://www.w3.org/2000/svg">
  <g transform="scale(8.111513624192787) translate(10, 10)">
    <g id="SvgjsG1037" featurekey="nRdZyp-0" transform="matrix(1.447321, 0, 0, 1.447321, 130.54863, -1.095741)" fill="#F6FF9B">
      <g xmlns="http://www.w3.org/2000/svg">
        <g>
          <path fill-rule="evenodd" clip-rule="evenodd" d="M27.865,0L20,4v85l46.591,11L74,94L28,82L27.865,0z M48,49l-13-3v8l13,3V49z     M48,31l-13-3v8l13,3V31z M48,68l-13-3v8l13,3V68z M48,12L35,9v8l13,3V12z M74,31.481c-12.846-1.286-9.26-14.815-9.26-14.815    c-5.406,2.942-15.675,4.312-9.259-9.258C54.086,7.462,29.556,0,29.556,0v79.629L74,90.74C74,90.74,73.933,35.196,74,31.481z     M50,80l-17-4V61l17,4V80z M50,61l-17-4V42l17,4V61z M50,42l-17-4V24l17,4V42z M50,24l-17-4V5l17,4V24z M70,85l-16-4V66l16,4V85z     M70,66l-16-4V47l16,4V66z M70,47l-16-4V29l16,4V47z M68,54l-12-3v8l12,3V54z M68,73l-12-3v8l12,3V73z M68,36l-12-3v8l12,3V36z"/>
        </g>
      </g>
    </g>
    <g id="SvgjsG1038" featurekey="Q4qmbg-0" transform="matrix(2.8473352718445266,0,0,2.8473352718445266,96.24831921910996,30.762188590820443)" fill="#F6FF9B"/>
  </g>
</svg>